<mxfile host="app.diagrams.net" agent="Mozilla/5.0 (Macintosh; Intel Mac OS X 10_15_7) AppleWebKit/605.1.15 (KHTML, like Gecko) Version/18.0.1 Safari/605.1.15" version="24.8.0">
  <diagram id="a45cf8ec-cd66-6f27-3ac3-be6e809c9e4a" name="Page-1">
    <mxGraphModel dx="1406" dy="951" grid="1" gridSize="10" guides="1" tooltips="1" connect="1" arrows="1" fold="1" page="1" pageScale="1" pageWidth="827" pageHeight="1169" background="none" math="0" shadow="0">
      <root>
        <mxCell id="0" />
        <mxCell id="1" parent="0" />
        <mxCell id="3" value="" style="rounded=1;whiteSpace=wrap;html=1;shadow=0;strokeColor=none;fillColor=#BAC8D3;gradientColor=none;fontSize=18;fontColor=#F08705;opacity=40;fontStyle=0;strokeWidth=3;" parent="1" vertex="1">
          <mxGeometry x="215" y="70" width="1215" height="701" as="geometry" />
        </mxCell>
        <mxCell id="4" value="&lt;span&gt;admin cluster&lt;/span&gt;" style="rounded=1;whiteSpace=wrap;html=1;shadow=0;strokeColor=none;fillColor=#BAC8D3;gradientColor=none;fontSize=18;fontColor=#AE4132;verticalAlign=top;opacity=70;fontStyle=0;strokeWidth=3;" parent="1" vertex="1">
          <mxGeometry x="400" y="60" width="385" height="140" as="geometry" />
        </mxCell>
        <mxCell id="5" value="int workload" style="rounded=1;whiteSpace=wrap;html=1;shadow=0;strokeColor=none;fillColor=#BAC8D3;gradientColor=none;fontSize=18;fontColor=#AE4132;verticalAlign=top;fontStyle=0;opacity=70;strokeWidth=3;" parent="1" vertex="1">
          <mxGeometry x="485" y="390" width="300" height="105" as="geometry" />
        </mxCell>
        <mxCell id="10" value="admin workstation" style="rounded=1;whiteSpace=wrap;html=1;shadow=0;strokeColor=none;fillColor=#BAC8D3;gradientColor=none;fontSize=18;fontColor=#AE4132;verticalAlign=top;opacity=70;fontStyle=0;strokeWidth=3;" parent="1" vertex="1">
          <mxGeometry x="900" y="79" width="300" height="108" as="geometry" />
        </mxCell>
        <mxCell id="19" value="Internet" style="ellipse;shape=cloud;whiteSpace=wrap;html=1;shadow=0;strokeColor=#23445D;fillColor=#BAC8D3;gradientColor=none;fontSize=18;fontColor=#23445D;gradientDirection=north;fontStyle=0;strokeWidth=2;" parent="1" vertex="1">
          <mxGeometry x="1501" y="361" width="120" height="80" as="geometry" />
        </mxCell>
        <mxCell id="20" value="" style="strokeWidth=2;strokeColor=#666666;dashed=0;align=center;html=1;fontSize=8;shape=mxgraph.eip.messageChannel;shadow=0;fillColor=#FFFFFF;gradientColor=none;fontColor=#F08705;fontStyle=0" parent="1" vertex="1">
          <mxGeometry x="360" y="230" width="440" height="20" as="geometry" />
        </mxCell>
        <mxCell id="21" value="" style="edgeStyle=elbowEdgeStyle;strokeWidth=2;rounded=0;endArrow=none;startArrow=none;startSize=10;endSize=10;dashed=0;html=1;strokeColor=#23445D;fontSize=18;fontColor=#F08705;startFill=0;endFill=0;fontStyle=0" parent="1" target="20" edge="1">
          <mxGeometry relative="1" as="geometry">
            <mxPoint x="539.7142857142858" y="177" as="sourcePoint" />
            <mxPoint x="540" y="230" as="targetPoint" />
          </mxGeometry>
        </mxCell>
        <mxCell id="25" value="" style="image;html=1;image=img/lib/clip_art/computers/Netbook_128x128.png;shadow=0;strokeColor=#000000;fillColor=#FFFFFF;gradientColor=none;fontSize=18;fontColor=#F08705;fontStyle=0" parent="1" vertex="1">
          <mxGeometry x="140" y="17" width="80" height="80" as="geometry" />
        </mxCell>
        <mxCell id="27" value="" style="image;html=1;image=img/lib/clip_art/computers/Netbook_128x128.png;shadow=0;strokeColor=#000000;fillColor=#FFFFFF;gradientColor=none;fontSize=18;fontColor=#F08705;fontStyle=0" parent="1" vertex="1">
          <mxGeometry x="920" y="97" width="80" height="80" as="geometry" />
        </mxCell>
        <mxCell id="28" value="" style="image;html=1;image=img/lib/clip_art/computers/Netbook_128x128.png;shadow=0;strokeColor=#000000;fillColor=#FFFFFF;gradientColor=none;fontSize=18;fontColor=#F08705;fontStyle=0" parent="1" vertex="1">
          <mxGeometry x="1010" y="97" width="80" height="80" as="geometry" />
        </mxCell>
        <mxCell id="29" value="" style="image;html=1;image=img/lib/clip_art/computers/Netbook_128x128.png;shadow=0;strokeColor=#000000;fillColor=#FFFFFF;gradientColor=none;fontSize=18;fontColor=#F08705;fontStyle=0" parent="1" vertex="1">
          <mxGeometry x="1110" y="100" width="77" height="77" as="geometry" />
        </mxCell>
        <mxCell id="30" value="" style="image;html=1;image=img/lib/clip_art/computers/Netbook_128x128.png;shadow=0;strokeColor=#000000;fillColor=#FFFFFF;gradientColor=none;fontSize=18;fontColor=#F08705;fontStyle=0" parent="1" vertex="1">
          <mxGeometry x="500" y="410" width="80" height="80" as="geometry" />
        </mxCell>
        <mxCell id="31" value="" style="image;html=1;image=img/lib/clip_art/computers/Netbook_128x128.png;shadow=0;strokeColor=#000000;fillColor=#FFFFFF;gradientColor=none;fontSize=18;fontColor=#F08705;fontStyle=0" parent="1" vertex="1">
          <mxGeometry x="590" y="410" width="80" height="80" as="geometry" />
        </mxCell>
        <mxCell id="32" value="" style="image;html=1;image=img/lib/clip_art/computers/Netbook_128x128.png;shadow=0;strokeColor=#000000;fillColor=#FFFFFF;gradientColor=none;fontSize=18;fontColor=#AE4132;fontStyle=0" parent="1" vertex="1">
          <mxGeometry x="690" y="410" width="80" height="80" as="geometry" />
        </mxCell>
        <mxCell id="39" value="" style="image;html=1;image=img/lib/clip_art/computers/Server_Rack_128x128.png;shadow=0;strokeColor=#000000;fillColor=#FFFFFF;gradientColor=none;fontSize=18;fontColor=#F08705;fontStyle=0" parent="1" vertex="1">
          <mxGeometry x="500" y="100" width="80" height="80" as="geometry" />
        </mxCell>
        <mxCell id="45" value="" style="strokeWidth=2;strokeColor=#666666;dashed=0;align=center;html=1;fontSize=8;shape=mxgraph.eip.messageChannel;shadow=0;fillColor=#FFFFFF;gradientColor=none;fontColor=#F08705;fontStyle=0" parent="1" vertex="1">
          <mxGeometry x="918" y="229" width="422" height="20" as="geometry" />
        </mxCell>
        <mxCell id="46" value="" style="strokeWidth=2;strokeColor=#666666;dashed=0;align=center;html=1;fontSize=8;shape=mxgraph.eip.messageChannel;shadow=0;fillColor=#FFFFFF;gradientColor=none;fontColor=#F08705;fontStyle=0" parent="1" vertex="1">
          <mxGeometry x="360" y="330" width="430" height="20" as="geometry" />
        </mxCell>
        <mxCell id="85" value="" style="edgeStyle=elbowEdgeStyle;strokeWidth=2;rounded=0;endArrow=none;startArrow=none;startSize=10;endSize=10;dashed=0;html=1;strokeColor=#23445D;fontSize=18;fontColor=#F08705;startFill=0;endFill=0;fontStyle=0;entryX=0;entryY=0;entryDx=40;entryDy=0;entryPerimeter=0;" parent="1" source="25" target="20" edge="1">
          <mxGeometry relative="1" as="geometry">
            <mxPoint x="630" y="170" as="sourcePoint" />
            <mxPoint x="420" y="180" as="targetPoint" />
          </mxGeometry>
        </mxCell>
        <mxCell id="86" value="" style="edgeStyle=elbowEdgeStyle;strokeWidth=2;rounded=0;endArrow=none;startArrow=none;startSize=10;endSize=10;dashed=0;html=1;strokeColor=#23445D;fontSize=18;fontColor=#F08705;startFill=0;endFill=0;fontStyle=0" parent="1" target="20" edge="1">
          <mxGeometry relative="1" as="geometry">
            <mxPoint x="729.7142857142858" y="177" as="sourcePoint" />
            <mxPoint x="730" y="230" as="targetPoint" />
          </mxGeometry>
        </mxCell>
        <mxCell id="87" value="" style="edgeStyle=elbowEdgeStyle;strokeWidth=2;rounded=0;endArrow=none;startArrow=none;startSize=10;endSize=10;dashed=0;html=1;strokeColor=#23445D;fontSize=18;fontColor=#F08705;startFill=0;endFill=0;fontStyle=0" parent="1" source="27" target="45" edge="1">
          <mxGeometry relative="1" as="geometry">
            <mxPoint x="910" y="169" as="sourcePoint" />
            <mxPoint x="910" y="222" as="targetPoint" />
          </mxGeometry>
        </mxCell>
        <mxCell id="88" value="" style="edgeStyle=elbowEdgeStyle;strokeWidth=2;rounded=0;endArrow=none;startArrow=none;startSize=10;endSize=10;dashed=0;html=1;strokeColor=#23445D;fontSize=18;fontColor=#F08705;startFill=0;endFill=0;fontStyle=0" parent="1" source="28" target="45" edge="1">
          <mxGeometry relative="1" as="geometry">
            <mxPoint x="560" y="197" as="sourcePoint" />
            <mxPoint x="560" y="250" as="targetPoint" />
          </mxGeometry>
        </mxCell>
        <mxCell id="89" value="" style="edgeStyle=elbowEdgeStyle;strokeWidth=2;rounded=0;endArrow=none;startArrow=none;startSize=10;endSize=10;dashed=0;html=1;strokeColor=#23445D;fontSize=18;fontColor=#F08705;startFill=0;endFill=0;fontStyle=0" parent="1" source="29" target="45" edge="1">
          <mxGeometry relative="1" as="geometry">
            <mxPoint x="1060" y="187" as="sourcePoint" />
            <mxPoint x="1060" y="239" as="targetPoint" />
          </mxGeometry>
        </mxCell>
        <mxCell id="90" value="" style="edgeStyle=elbowEdgeStyle;strokeWidth=2;rounded=0;endArrow=none;startArrow=none;startSize=10;endSize=10;dashed=0;html=1;strokeColor=#23445D;fontSize=18;fontColor=#F08705;startFill=0;endFill=0;fontStyle=0" parent="1" target="45" edge="1">
          <mxGeometry relative="1" as="geometry">
            <mxPoint x="1279.7142857142858" y="197" as="sourcePoint" />
            <mxPoint x="1070" y="249" as="targetPoint" />
          </mxGeometry>
        </mxCell>
        <mxCell id="91" value="" style="edgeStyle=elbowEdgeStyle;strokeWidth=2;rounded=0;endArrow=none;startArrow=none;startSize=10;endSize=10;dashed=0;html=1;strokeColor=#23445D;fontSize=18;fontColor=#F08705;startFill=0;endFill=0;fontStyle=0" parent="1" source="30" target="46" edge="1">
          <mxGeometry relative="1" as="geometry">
            <mxPoint x="550" y="308" as="sourcePoint" />
            <mxPoint x="550" y="361" as="targetPoint" />
          </mxGeometry>
        </mxCell>
        <mxCell id="92" value="" style="edgeStyle=elbowEdgeStyle;strokeWidth=2;rounded=0;endArrow=none;startArrow=none;startSize=10;endSize=10;dashed=0;html=1;strokeColor=#23445D;fontSize=18;fontColor=#F08705;startFill=0;endFill=0;fontStyle=0" parent="1" source="31" target="46" edge="1">
          <mxGeometry relative="1" as="geometry">
            <mxPoint x="560" y="318" as="sourcePoint" />
            <mxPoint x="560" y="371" as="targetPoint" />
          </mxGeometry>
        </mxCell>
        <mxCell id="93" value="" style="edgeStyle=elbowEdgeStyle;strokeWidth=2;rounded=0;endArrow=none;startArrow=none;startSize=10;endSize=10;dashed=0;html=1;strokeColor=#23445D;fontSize=18;fontColor=#F08705;startFill=0;endFill=0;fontStyle=0" parent="1" source="32" target="46" edge="1">
          <mxGeometry relative="1" as="geometry">
            <mxPoint x="570" y="328" as="sourcePoint" />
            <mxPoint x="570" y="381" as="targetPoint" />
          </mxGeometry>
        </mxCell>
        <mxCell id="110" style="edgeStyle=none;rounded=0;html=1;startArrow=none;startFill=0;endArrow=none;endFill=0;fontSize=18;fontColor=#F08705;strokeColor=#23445D;strokeWidth=2;fontStyle=0" parent="1" source="7Rzl1sYWzA0ziIdHXuS2-172" target="19" edge="1">
          <mxGeometry relative="1" as="geometry">
            <mxPoint x="1039.4766364897455" y="759" as="sourcePoint" />
          </mxGeometry>
        </mxCell>
        <mxCell id="168" value="SGSINF NETWORK" style="text;html=1;strokeColor=none;fillColor=none;align=center;verticalAlign=middle;whiteSpace=wrap;overflow=hidden;shadow=0;fontSize=36;fontColor=#AE4132;fontStyle=0" parent="1" vertex="1">
          <mxGeometry x="137" y="15" width="1380" height="45" as="geometry" />
        </mxCell>
        <mxCell id="171" style="edgeStyle=orthogonalEdgeStyle;rounded=0;jumpStyle=none;html=1;exitX=0;exitY=0.5;entryX=0;entryY=0.5;shadow=0;labelBackgroundColor=none;startArrow=none;startFill=0;endArrow=classic;endFill=1;endSize=6;jettySize=auto;orthogonalLoop=1;strokeColor=#23445D;strokeWidth=2;fillColor=#F08705;fontFamily=Helvetica;fontSize=14;fontColor=#F08705;align=left;fontStyle=0" parent="1" source="168" target="168" edge="1">
          <mxGeometry relative="1" as="geometry" />
        </mxCell>
        <mxCell id="172" style="edgeStyle=orthogonalEdgeStyle;rounded=0;jumpStyle=none;html=1;exitX=0.75;exitY=0;entryX=0.75;entryY=0;shadow=0;labelBackgroundColor=none;startArrow=none;startFill=0;endArrow=classic;endFill=1;endSize=6;jettySize=auto;orthogonalLoop=1;strokeColor=#23445D;strokeWidth=2;fillColor=#F08705;fontFamily=Helvetica;fontSize=14;fontColor=#FFFFFF;align=left;fontStyle=0" parent="1" source="27" target="27" edge="1">
          <mxGeometry relative="1" as="geometry" />
        </mxCell>
        <mxCell id="7Rzl1sYWzA0ziIdHXuS2-172" value="" style="image;html=1;image=img/lib/clip_art/networking/Router_Icon_128x128.png" vertex="1" parent="1">
          <mxGeometry x="830" y="260" width="80" height="80" as="geometry" />
        </mxCell>
        <mxCell id="7Rzl1sYWzA0ziIdHXuS2-173" value="" style="edgeStyle=elbowEdgeStyle;strokeWidth=2;rounded=0;endArrow=none;startArrow=none;startSize=10;endSize=10;dashed=0;html=1;strokeColor=#23445D;fontSize=18;fontColor=#F08705;startFill=0;endFill=0;fontStyle=0;" edge="1" parent="1" target="7Rzl1sYWzA0ziIdHXuS2-172">
          <mxGeometry relative="1" as="geometry">
            <mxPoint x="764.2842857142857" y="249" as="sourcePoint" />
            <mxPoint x="764.5699999999999" y="302" as="targetPoint" />
            <Array as="points">
              <mxPoint x="880" y="280" />
            </Array>
          </mxGeometry>
        </mxCell>
        <mxCell id="7Rzl1sYWzA0ziIdHXuS2-176" value="" style="edgeStyle=elbowEdgeStyle;strokeWidth=2;rounded=0;endArrow=none;startArrow=none;startSize=10;endSize=10;dashed=0;html=1;strokeColor=#23445D;fontSize=18;fontColor=#F08705;startFill=0;endFill=0;fontStyle=0;exitX=1;exitY=0.5;exitDx=0;exitDy=0;entryX=0;entryY=1;entryDx=110;entryDy=0;entryPerimeter=0;" edge="1" parent="1" source="7Rzl1sYWzA0ziIdHXuS2-172" target="45">
          <mxGeometry relative="1" as="geometry">
            <mxPoint x="1158" y="187" as="sourcePoint" />
            <mxPoint x="1158" y="239" as="targetPoint" />
          </mxGeometry>
        </mxCell>
        <mxCell id="7Rzl1sYWzA0ziIdHXuS2-177" value="" style="image;html=1;image=img/lib/clip_art/computers/Server_Rack_128x128.png;shadow=0;strokeColor=#000000;fillColor=#FFFFFF;gradientColor=none;fontSize=18;fontColor=#F08705;fontStyle=0" vertex="1" parent="1">
          <mxGeometry x="423" y="98.5" width="80" height="80" as="geometry" />
        </mxCell>
        <mxCell id="7Rzl1sYWzA0ziIdHXuS2-178" value="" style="image;html=1;image=img/lib/clip_art/computers/Server_Rack_128x128.png;shadow=0;strokeColor=#000000;fillColor=#FFFFFF;gradientColor=none;fontSize=18;fontColor=#F08705;fontStyle=0" vertex="1" parent="1">
          <mxGeometry x="580" y="100" width="80" height="80" as="geometry" />
        </mxCell>
        <mxCell id="7Rzl1sYWzA0ziIdHXuS2-179" value="" style="image;html=1;image=img/lib/clip_art/computers/Server_Rack_128x128.png;shadow=0;strokeColor=#000000;fillColor=#FFFFFF;gradientColor=none;fontSize=18;fontColor=#F08705;fontStyle=0" vertex="1" parent="1">
          <mxGeometry x="690" y="107" width="80" height="80" as="geometry" />
        </mxCell>
      </root>
    </mxGraphModel>
  </diagram>
</mxfile>
